<svg width="115" height="30" viewBox="0 0 115 30" fill="none" xmlns="http://www.w3.org/2000/svg">
<path d="M82.2167 13.0872V15.6928H80.5835V17.4015H82.2167V23.2075C82.2167 25.19 83.1136 25.983 85.3699 25.983C85.7664 25.983 86.144 25.9358 86.4744 25.8791V24.1893C86.1912 24.2176 86.0118 24.2365 85.7003 24.2365C84.6902 24.2365 84.2465 23.7645 84.2465 22.6882V17.4015H86.4744V15.6928H84.2465V13.0872H82.2167Z" fill="white"/>
<path d="M92.2222 26.1246C95.2243 26.1246 97.0652 24.1138 97.0652 20.7813C97.0652 17.4676 95.2148 15.4474 92.2222 15.4474C89.2201 15.4474 87.3698 17.4676 87.3698 20.7813C87.3698 24.1138 89.2107 26.1246 92.2222 26.1246ZM92.2222 24.3215C90.4568 24.3215 89.4656 23.0281 89.4656 20.7813C89.4656 18.5533 90.4568 17.2505 92.2222 17.2505C93.9781 17.2505 94.9788 18.5533 94.9788 20.7813C94.9788 23.0187 93.9781 24.3215 92.2222 24.3215Z" fill="white"/>
<path d="M98.6403 25.9263H100.67V19.8561C100.67 18.4117 101.756 17.4393 103.294 17.4393C103.653 17.4393 104.257 17.5054 104.427 17.562V15.5606C104.21 15.504 103.823 15.4757 103.521 15.4757C102.18 15.4757 101.038 16.212 100.745 17.2222H100.594V15.6456H98.6403V25.9263Z" fill="white"/>
<path d="M109.467 17.175C110.968 17.175 111.95 18.2229 111.997 19.8372H106.805C106.918 18.2323 107.966 17.175 109.467 17.175ZM111.988 23.1508C111.61 23.9533 110.77 24.397 109.543 24.397C107.919 24.397 106.871 23.2547 106.805 21.4515V21.3382H114.065V20.6302C114.065 17.4015 112.337 15.4474 109.476 15.4474C106.578 15.4474 104.737 17.5337 104.737 20.819C104.737 24.1043 106.54 26.1246 109.486 26.1246C111.837 26.1246 113.479 24.9917 113.942 23.1508H111.988Z" fill="white"/>
<path d="M68.9062 22.1298C69.0627 24.6543 71.1665 26.2688 74.2976 26.2688C77.644 26.2688 79.738 24.576 79.738 21.8754C79.738 19.7521 78.5442 18.5779 75.6479 17.9028L74.0921 17.5212C72.2526 17.0906 71.5089 16.5133 71.5089 15.5055C71.5089 14.2335 72.6636 13.4018 74.3955 13.4018C76.0393 13.4018 77.1744 14.2139 77.3798 15.5153H79.5129C79.3857 13.1376 77.2918 11.4644 74.4248 11.4644C71.3426 11.4644 69.2878 13.1376 69.2878 15.6523C69.2878 17.7267 70.4522 18.9595 73.006 19.5564L74.826 19.9967C76.6949 20.4371 77.5168 21.0829 77.5168 22.1592C77.5168 23.4116 76.2252 24.3216 74.464 24.3216C72.5755 24.3216 71.2643 23.4704 71.0784 22.1298H68.9062Z" fill="white"/>
<path d="M47.8804 15.4757C46.4832 15.4757 45.2748 16.1743 44.6517 17.3449H44.5007V15.6456H42.5465V29.3438H44.5762V24.3687H44.7367C45.2748 25.4543 46.436 26.0963 47.8993 26.0963C50.4954 26.0963 52.1475 24.0477 52.1475 20.7813C52.1475 17.5148 50.4954 15.4757 47.8804 15.4757ZM47.3045 24.2743C45.6052 24.2743 44.5385 22.9337 44.5385 20.7907C44.5385 18.6383 45.6052 17.2977 47.314 17.2977C49.0321 17.2977 50.0612 18.6099 50.0612 20.7813C50.0612 22.962 49.0321 24.2743 47.3045 24.2743Z" fill="white"/>
<path d="M59.2498 15.4757C57.8526 15.4757 56.6442 16.1743 56.0212 17.3449H55.8701V15.6456H53.9159V29.3438H55.9456V24.3687H56.1061C56.6442 25.4543 57.8054 26.0963 59.2687 26.0963C61.8649 26.0963 63.5169 24.0477 63.5169 20.7813C63.5169 17.5148 61.8649 15.4757 59.2498 15.4757ZM58.674 24.2743C56.9747 24.2743 55.9079 22.9337 55.9079 20.7907C55.9079 18.6383 56.9747 17.2977 58.6834 17.2977C60.4016 17.2977 61.4306 18.6099 61.4306 20.7813C61.4306 22.962 60.4016 24.2743 58.674 24.2743Z" fill="white"/>
<path d="M38.9048 25.9263H41.2336L36.1357 11.8068H33.7776L28.6797 25.9263H30.9302L32.2316 22.1788H37.6132L38.9048 25.9263ZM34.8441 14.3705H35.0105L37.0555 20.3392H32.7893L34.8441 14.3705Z" fill="white"/>
<path d="M30.0469 1.15594V7.96729H32.5061C34.5358 7.96729 35.7112 6.71641 35.7112 4.54037C35.7112 2.39737 34.5264 1.15594 32.5061 1.15594H30.0469ZM31.1042 2.11887H32.3881C33.7995 2.11887 34.635 3.01573 34.635 4.55453C34.635 6.11694 33.8136 7.00435 32.3881 7.00435H31.1042V2.11887Z" fill="white"/>
<path d="M39.3109 8.06641C40.8119 8.06641 41.7324 7.06099 41.7324 5.39474C41.7324 3.73793 40.8072 2.72779 39.3109 2.72779C37.8098 2.72779 36.8847 3.73793 36.8847 5.39474C36.8847 7.06099 37.8051 8.06641 39.3109 8.06641ZM39.3109 7.16484C38.4282 7.16484 37.9326 6.51816 37.9326 5.39474C37.9326 4.28076 38.4282 3.62936 39.3109 3.62936C40.1888 3.62936 40.6892 4.28076 40.6892 5.39474C40.6892 6.51344 40.1888 7.16484 39.3109 7.16484Z" fill="white"/>
<path d="M49.5708 2.82691H48.556L47.6403 6.74946H47.56L46.5027 2.82691H45.5303L44.473 6.74946H44.3974L43.477 2.82691H42.448L43.864 7.96729H44.9072L45.9646 4.18163H46.0448L47.1069 7.96729H48.1595L49.5708 2.82691Z" fill="white"/>
<path d="M50.7396 7.96729H51.7544V4.96048C51.7544 4.15803 52.2312 3.65768 52.9817 3.65768C53.7322 3.65768 54.091 4.06834 54.091 4.89439V7.96729H55.1058V4.6395C55.1058 3.41695 54.4733 2.72779 53.3263 2.72779C52.5522 2.72779 52.0424 3.07237 51.7922 3.64352H51.7167V2.82691H50.7396V7.96729Z" fill="white"/>
<path d="M56.7041 7.96729H57.719V0.820801H56.7041V7.96729Z" fill="white"/>
<path d="M61.5358 8.06641C63.0368 8.06641 63.9573 7.06099 63.9573 5.39474C63.9573 3.73793 63.0321 2.72779 61.5358 2.72779C60.0347 2.72779 59.1096 3.73793 59.1096 5.39474C59.1096 7.06099 60.03 8.06641 61.5358 8.06641ZM61.5358 7.16484C60.6531 7.16484 60.1575 6.51816 60.1575 5.39474C60.1575 4.28076 60.6531 3.62936 61.5358 3.62936C62.4137 3.62936 62.9141 4.28076 62.9141 5.39474C62.9141 6.51344 62.4137 7.16484 61.5358 7.16484Z" fill="white"/>
<path d="M66.9811 7.19788C66.4288 7.19788 66.0276 6.92883 66.0276 6.46624C66.0276 6.01309 66.3486 5.77236 67.0566 5.72516L68.3122 5.64491V6.07446C68.3122 6.71169 67.7458 7.19788 66.9811 7.19788ZM66.7215 8.05225C67.3965 8.05225 67.9582 7.75959 68.265 7.24508H68.3452V7.96729H69.3223V4.45541C69.3223 3.36975 68.5954 2.72779 67.3068 2.72779C66.1409 2.72779 65.3101 3.29422 65.2063 4.17691H66.1881C66.3014 3.81345 66.6931 3.60576 67.2596 3.60576C67.9535 3.60576 68.3122 3.91258 68.3122 4.45541V4.89911L66.9197 4.97936C65.6972 5.05488 65.008 5.58827 65.008 6.51344C65.008 7.45278 65.7302 8.05225 66.7215 8.05225Z" fill="white"/>
<path d="M72.7662 8.05225C73.4743 8.05225 74.0738 7.71711 74.3806 7.1554H74.4608V7.96729H75.4332V0.820801H74.4183V3.64352H74.3428C74.0643 3.07709 73.4696 2.74195 72.7662 2.74195C71.4682 2.74195 70.6327 3.77097 70.6327 5.39474C70.6327 7.02323 71.4587 8.05225 72.7662 8.05225ZM73.0542 3.65296C73.9038 3.65296 74.4372 4.32796 74.4372 5.39946C74.4372 6.47568 73.9085 7.14124 73.0542 7.14124C72.1951 7.14124 71.6806 6.48512 71.6806 5.39474C71.6806 4.3138 72.1998 3.65296 73.0542 3.65296Z" fill="white"/>
<path d="M82.0142 8.06641C83.5152 8.06641 84.4357 7.06099 84.4357 5.39474C84.4357 3.73793 83.5105 2.72779 82.0142 2.72779C80.5131 2.72779 79.588 3.73793 79.588 5.39474C79.588 7.06099 80.5084 8.06641 82.0142 8.06641ZM82.0142 7.16484C81.1315 7.16484 80.6359 6.51816 80.6359 5.39474C80.6359 4.28076 81.1315 3.62936 82.0142 3.62936C82.8922 3.62936 83.3925 4.28076 83.3925 5.39474C83.3925 6.51344 82.8922 7.16484 82.0142 7.16484Z" fill="white"/>
<path d="M85.7791 7.96729H86.7939V4.96048C86.7939 4.15803 87.2707 3.65768 88.0212 3.65768C88.7717 3.65768 89.1305 4.06834 89.1305 4.89439V7.96729H90.1453V4.6395C90.1453 3.41695 89.5128 2.72779 88.3658 2.72779C87.5917 2.72779 87.0819 3.07237 86.8317 3.64352H86.7562V2.82691H85.7791V7.96729Z" fill="white"/>
<path d="M94.8193 1.54772V2.85052H94.0027V3.70488H94.8193V6.60785C94.8193 7.5991 95.2678 7.99561 96.3959 7.99561C96.5941 7.99561 96.783 7.97201 96.9482 7.94368V7.09876C96.8066 7.11292 96.7169 7.12236 96.5611 7.12236C96.056 7.12236 95.8342 6.88634 95.8342 6.34823V3.70488H96.9482V2.85052H95.8342V1.54772H94.8193Z" fill="white"/>
<path d="M98.3104 7.96729H99.3253V4.9652C99.3253 4.18635 99.7879 3.6624 100.619 3.6624C101.336 3.6624 101.718 4.07779 101.718 4.89911V7.96729H102.733V4.64894C102.733 3.42639 102.058 2.73251 100.963 2.73251C100.189 2.73251 99.6463 3.07709 99.3961 3.65296H99.3159V0.820801H98.3104V7.96729Z" fill="white"/>
<path d="M106.394 3.5916C107.145 3.5916 107.636 4.11555 107.659 4.92271H105.063C105.12 4.12027 105.644 3.5916 106.394 3.5916ZM107.655 6.57953C107.466 6.98075 107.046 7.2026 106.432 7.2026C105.62 7.2026 105.096 6.63145 105.063 5.72988V5.67324H108.693V5.31922C108.693 3.70488 107.829 2.72779 106.399 2.72779C104.95 2.72779 104.03 3.77097 104.03 5.41362C104.03 7.05627 104.931 8.06641 106.404 8.06641C107.579 8.06641 108.4 7.49998 108.632 6.57953H107.655Z" fill="white"/>
<path d="M17.6689 14.3369C17.6936 12.4251 18.7203 10.6161 20.3491 9.61476C19.3215 8.14727 17.6005 7.21684 15.8099 7.16081C13.9001 6.96035 12.0486 8.30362 11.0754 8.30362C10.0834 8.30362 8.58495 7.18072 6.97142 7.21392C4.86825 7.28186 2.90757 8.47761 1.88434 10.3163C-0.315213 14.1245 1.32545 19.7213 3.43244 22.7995C4.48661 24.3068 5.71863 25.9906 7.33071 25.9309C8.90822 25.8654 9.49739 24.9249 11.4016 24.9249C13.2881 24.9249 13.8409 25.9309 15.4857 25.8929C17.1784 25.8654 18.2449 24.3789 19.2621 22.8573C20.0195 21.7832 20.6023 20.5962 20.989 19.3401C18.9997 18.4988 17.6712 16.4968 17.6689 14.3369Z" fill="white"/>
<path d="M14.5622 5.13641C15.4851 4.02844 15.9398 2.60432 15.8297 1.1665C14.4197 1.3146 13.1172 1.98853 12.1817 3.05399C11.267 4.095 10.791 5.49406 10.881 6.87692C12.2916 6.89144 13.6783 6.23579 14.5622 5.13641Z" fill="white"/>
</svg>
