<svg width="280" height="70" viewBox="0 0 280 70" fill="none" xmlns="http://www.w3.org/2000/svg">
<rect opacity="0.1" y="14" width="280" height="56" rx="15" fill="url(#paint0_linear_3119_5100)" fill-opacity="0.75"/>
<circle cx="145" cy="18" r="18" fill="#F94A3D"/>
<path fill-rule="evenodd" clip-rule="evenodd" d="M148.599 13.725H148.769C151.013 13.725 152.833 15.6 152.833 17.9V22.5C152.833 24.8 151.013 26.6667 148.769 26.6667H141.064C138.821 26.6667 137 24.8 137 22.5V17.9C137 15.6 138.821 13.725 141.064 13.725H141.235C141.251 12.725 141.633 11.7917 142.324 11.0917C143.023 10.3833 143.917 10.025 144.925 10C146.941 10 148.574 11.6667 148.599 13.725ZM143.177 11.9833C142.721 12.45 142.469 13.0667 142.453 13.725H147.379C147.354 12.3583 146.265 11.25 144.924 11.25C144.298 11.25 143.648 11.5083 143.177 11.9833ZM148.004 16.9335C148.346 16.9335 148.614 16.6501 148.614 16.3085V15.3418C148.614 15.0001 148.346 14.7168 148.004 14.7168C147.671 14.7168 147.395 15.0001 147.395 15.3418V16.3085C147.395 16.6501 147.671 16.9335 148.004 16.9335ZM142.364 16.3085C142.364 16.6501 142.096 16.9335 141.754 16.9335C141.421 16.9335 141.145 16.6501 141.145 16.3085V15.3418C141.145 15.0001 141.421 14.7168 141.754 14.7168C142.096 14.7168 142.364 15.0001 142.364 15.3418V16.3085Z" fill="white"/>
<path d="M23.7367 51.103V55.333H23.1847V53.377H21.0367V55.333H20.4907V51.103H21.0367V52.933H23.1847V51.103H23.7367ZM26.1039 51.997C26.4199 51.997 26.7019 52.065 26.9499 52.201C27.2019 52.337 27.3979 52.533 27.5379 52.789C27.6819 53.045 27.7539 53.345 27.7539 53.689C27.7539 54.033 27.6819 54.333 27.5379 54.589C27.3979 54.841 27.2019 55.035 26.9499 55.171C26.7019 55.307 26.4199 55.375 26.1039 55.375C25.7879 55.375 25.5039 55.307 25.2519 55.171C25.0039 55.035 24.8079 54.841 24.6639 54.589C24.5199 54.333 24.4479 54.033 24.4479 53.689C24.4479 53.345 24.5199 53.045 24.6639 52.789C24.8079 52.533 25.0039 52.337 25.2519 52.201C25.5039 52.065 25.7879 51.997 26.1039 51.997ZM26.1039 52.477C25.9079 52.477 25.7259 52.521 25.5579 52.609C25.3939 52.697 25.2599 52.833 25.1559 53.017C25.0559 53.197 25.0059 53.421 25.0059 53.689C25.0059 53.953 25.0559 54.177 25.1559 54.361C25.2599 54.541 25.3939 54.675 25.5579 54.763C25.7259 54.851 25.9079 54.895 26.1039 54.895C26.2999 54.895 26.4799 54.851 26.6439 54.763C26.8119 54.675 26.9459 54.541 27.0459 54.361C27.1499 54.177 27.2019 53.953 27.2019 53.689C27.2019 53.421 27.1499 53.197 27.0459 53.017C26.9459 52.833 26.8119 52.697 26.6439 52.609C26.4799 52.521 26.2999 52.477 26.1039 52.477ZM32.5153 51.985C32.8993 51.985 33.2073 52.109 33.4393 52.357C33.6753 52.601 33.7933 52.955 33.7933 53.419V55.333H33.2473V53.467C33.2473 53.143 33.1673 52.895 33.0073 52.723C32.8513 52.551 32.6353 52.465 32.3593 52.465C32.0713 52.465 31.8393 52.561 31.6633 52.753C31.4913 52.941 31.4053 53.219 31.4053 53.587V55.333H30.8593V53.467C30.8593 53.143 30.7793 52.895 30.6193 52.723C30.4593 52.551 30.2433 52.465 29.9713 52.465C29.6793 52.465 29.4453 52.561 29.2693 52.753C29.0973 52.941 29.0113 53.219 29.0113 53.587V55.333H28.4653V52.039H29.0113V52.789C29.0913 52.529 29.2333 52.331 29.4373 52.195C29.6453 52.055 29.8833 51.985 30.1513 51.985C30.4313 51.985 30.6733 52.057 30.8773 52.201C31.0853 52.341 31.2333 52.549 31.3213 52.825C31.4133 52.557 31.5673 52.351 31.7833 52.207C31.9993 52.059 32.2433 51.985 32.5153 51.985ZM37.6711 53.503C37.6711 53.619 37.6631 53.719 37.6471 53.803H35.0131C35.0251 54.179 35.1311 54.461 35.3311 54.649C35.5351 54.837 35.7831 54.931 36.0751 54.931C36.3391 54.931 36.5591 54.865 36.7351 54.733C36.9151 54.597 37.0251 54.417 37.0651 54.193H37.6471C37.6071 54.421 37.5171 54.625 37.3771 54.805C37.2411 54.985 37.0631 55.125 36.8431 55.225C36.6231 55.325 36.3751 55.375 36.0991 55.375C35.7831 55.375 35.5031 55.307 35.2591 55.171C35.0151 55.035 34.8231 54.841 34.6831 54.589C34.5471 54.333 34.4791 54.033 34.4791 53.689C34.4791 53.345 34.5471 53.045 34.6831 52.789C34.8231 52.533 35.0151 52.337 35.2591 52.201C35.5031 52.065 35.7831 51.997 36.0991 51.997C36.4191 51.997 36.6971 52.065 36.9331 52.201C37.1731 52.337 37.3551 52.519 37.4791 52.747C37.6071 52.975 37.6711 53.227 37.6711 53.503ZM37.1191 53.539C37.1311 53.295 37.0911 53.091 36.9991 52.927C36.9071 52.763 36.7811 52.641 36.6211 52.561C36.4611 52.481 36.2871 52.441 36.0991 52.441C35.7991 52.441 35.5471 52.535 35.3431 52.723C35.1391 52.907 35.0291 53.179 35.0131 53.539H37.1191Z" fill="#3F3232"/>
<path d="M27.529 43.6445V41.0963C27.529 40.4459 28.0601 39.9186 28.7154 39.9186H31.1105C31.4252 39.9186 31.7269 40.0427 31.9494 40.2635C32.1719 40.4844 32.2969 40.784 32.2969 41.0963V43.6445C32.2949 43.9149 32.4017 44.1749 32.5936 44.3668C32.7856 44.5587 33.0467 44.6667 33.3191 44.6667H34.9532C35.7164 44.6686 36.449 44.369 36.9893 43.834C37.5297 43.299 37.8333 42.5725 37.8333 41.8149V34.5557C37.8333 33.9437 37.5601 33.3632 37.0872 32.9706L31.5284 28.5632C30.5614 27.7905 29.1759 27.8154 28.2378 28.6225L22.8058 32.9706C22.3106 33.3516 22.0146 33.9339 22 34.5557V41.8074C22 43.3865 23.2895 44.6667 24.8801 44.6667H26.4769C27.0427 44.6667 27.5025 44.2135 27.5066 43.6519L27.529 43.6445Z" fill="#F94A3D"/>
<path d="M193.247 50.7696V51.2136H191.399V52.6776H192.965V53.1036H191.399V54.9996H190.853V50.7696H193.247ZM195.244 51.6636C195.564 51.6636 195.834 51.7436 196.054 51.9036C196.278 52.0636 196.434 52.2776 196.522 52.5456V51.7056H197.068V54.9996H196.522V54.1596C196.434 54.4276 196.278 54.6416 196.054 54.8016C195.834 54.9616 195.564 55.0416 195.244 55.0416C194.952 55.0416 194.692 54.9736 194.464 54.8376C194.236 54.7016 194.056 54.5076 193.924 54.2556C193.796 53.9996 193.732 53.6996 193.732 53.3556C193.732 53.0116 193.796 52.7116 193.924 52.4556C194.056 52.1996 194.236 52.0036 194.464 51.8676C194.692 51.7316 194.952 51.6636 195.244 51.6636ZM195.4 52.1496C195.064 52.1496 194.794 52.2576 194.59 52.4736C194.39 52.6856 194.29 52.9796 194.29 53.3556C194.29 53.7316 194.39 54.0276 194.59 54.2436C194.794 54.4556 195.064 54.5616 195.4 54.5616C195.616 54.5616 195.808 54.5116 195.976 54.4116C196.148 54.3116 196.282 54.1716 196.378 53.9916C196.474 53.8076 196.522 53.5956 196.522 53.3556C196.522 53.1156 196.474 52.9036 196.378 52.7196C196.282 52.5356 196.148 52.3956 195.976 52.2996C195.808 52.1996 195.616 52.1496 195.4 52.1496ZM199.215 54.4176L200.235 51.7056H200.823L199.533 54.9996H198.885L197.595 51.7056H198.183L199.215 54.4176ZM202.853 51.6636C203.169 51.6636 203.451 51.7316 203.699 51.8676C203.951 52.0036 204.147 52.1996 204.287 52.4556C204.431 52.7116 204.503 53.0116 204.503 53.3556C204.503 53.6996 204.431 53.9996 204.287 54.2556C204.147 54.5076 203.951 54.7016 203.699 54.8376C203.451 54.9736 203.169 55.0416 202.853 55.0416C202.537 55.0416 202.253 54.9736 202.001 54.8376C201.753 54.7016 201.557 54.5076 201.413 54.2556C201.269 53.9996 201.197 53.6996 201.197 53.3556C201.197 53.0116 201.269 52.7116 201.413 52.4556C201.557 52.1996 201.753 52.0036 202.001 51.8676C202.253 51.7316 202.537 51.6636 202.853 51.6636ZM202.853 52.1436C202.657 52.1436 202.475 52.1876 202.307 52.2756C202.143 52.3636 202.009 52.4996 201.905 52.6836C201.805 52.8636 201.755 53.0876 201.755 53.3556C201.755 53.6196 201.805 53.8436 201.905 54.0276C202.009 54.2076 202.143 54.3416 202.307 54.4296C202.475 54.5176 202.657 54.5616 202.853 54.5616C203.049 54.5616 203.229 54.5176 203.393 54.4296C203.561 54.3416 203.695 54.2076 203.795 54.0276C203.899 53.8436 203.951 53.6196 203.951 53.3556C203.951 53.0876 203.899 52.8636 203.795 52.6836C203.695 52.4996 203.561 52.3636 203.393 52.2756C203.229 52.1876 203.049 52.1436 202.853 52.1436ZM205.76 52.3716C205.868 52.1436 206.026 51.9676 206.234 51.8436C206.442 51.7156 206.69 51.6516 206.978 51.6516V52.2456H206.81C206.502 52.2456 206.25 52.3256 206.054 52.4856C205.858 52.6416 205.76 52.9016 205.76 53.2656V54.9996H205.214V51.7056H205.76V52.3716ZM207.421 50.7396C207.421 50.6396 207.455 50.5596 207.523 50.4996C207.591 50.4356 207.681 50.4036 207.793 50.4036C207.905 50.4036 207.995 50.4356 208.063 50.4996C208.131 50.5596 208.165 50.6396 208.165 50.7396C208.165 50.8396 208.131 50.9216 208.063 50.9856C207.995 51.0456 207.905 51.0756 207.793 51.0756C207.681 51.0756 207.591 51.0456 207.523 50.9856C207.455 50.9216 207.421 50.8396 207.421 50.7396ZM208.063 51.7056V54.9996H207.517V51.7056H208.063ZM210.513 54.5196V54.9996H210.105C209.769 54.9996 209.517 54.9196 209.349 54.7596C209.185 54.5996 209.103 54.3316 209.103 53.9556V52.1796H208.611V51.7056H209.103V50.8836H209.655V51.7056H210.507V52.1796H209.655V53.9676C209.655 54.1796 209.693 54.3256 209.769 54.4056C209.849 54.4816 209.985 54.5196 210.177 54.5196H210.513ZM214.209 53.1696C214.209 53.2856 214.201 53.3856 214.185 53.4696H211.551C211.563 53.8456 211.669 54.1276 211.869 54.3156C212.073 54.5036 212.321 54.5976 212.613 54.5976C212.877 54.5976 213.097 54.5316 213.273 54.3996C213.453 54.2636 213.563 54.0836 213.603 53.8596H214.185C214.145 54.0876 214.055 54.2916 213.915 54.4716C213.779 54.6516 213.601 54.7916 213.381 54.8916C213.161 54.9916 212.913 55.0416 212.637 55.0416C212.321 55.0416 212.041 54.9736 211.797 54.8376C211.553 54.7016 211.361 54.5076 211.221 54.2556C211.085 53.9996 211.017 53.6996 211.017 53.3556C211.017 53.0116 211.085 52.7116 211.221 52.4556C211.361 52.1996 211.553 52.0036 211.797 51.8676C212.041 51.7316 212.321 51.6636 212.637 51.6636C212.957 51.6636 213.235 51.7316 213.471 51.8676C213.711 52.0036 213.893 52.1856 214.017 52.4136C214.145 52.6416 214.209 52.8936 214.209 53.1696ZM213.657 53.2056C213.669 52.9616 213.629 52.7576 213.537 52.5936C213.445 52.4296 213.319 52.3076 213.159 52.2276C212.999 52.1476 212.825 52.1076 212.637 52.1076C212.337 52.1076 212.085 52.2016 211.881 52.3896C211.677 52.5736 211.567 52.8456 211.551 53.2056H213.657ZM215.955 51.6636C216.327 51.6636 216.625 51.7616 216.849 51.9576C217.077 52.1496 217.215 52.4096 217.263 52.7376H216.741C216.717 52.5416 216.635 52.3816 216.495 52.2576C216.359 52.1296 216.175 52.0656 215.943 52.0656C215.747 52.0656 215.593 52.1136 215.481 52.2096C215.373 52.3016 215.319 52.4276 215.319 52.5876C215.319 52.7076 215.355 52.8056 215.427 52.8816C215.503 52.9536 215.595 53.0096 215.703 53.0496C215.815 53.0856 215.967 53.1256 216.159 53.1696C216.403 53.2256 216.599 53.2836 216.747 53.3436C216.899 53.3996 217.027 53.4916 217.131 53.6196C217.239 53.7476 217.293 53.9196 217.293 54.1356C217.293 54.4036 217.191 54.6216 216.987 54.7896C216.787 54.9576 216.519 55.0416 216.183 55.0416C215.791 55.0416 215.471 54.9476 215.223 54.7596C214.975 54.5716 214.829 54.3096 214.785 53.9736H215.313C215.333 54.1736 215.419 54.3356 215.571 54.4596C215.727 54.5836 215.931 54.6456 216.183 54.6456C216.371 54.6456 216.517 54.5976 216.621 54.5016C216.729 54.4056 216.783 54.2796 216.783 54.1236C216.783 53.9956 216.745 53.8936 216.669 53.8176C216.593 53.7416 216.499 53.6836 216.387 53.6436C216.275 53.6036 216.121 53.5616 215.925 53.5176C215.681 53.4616 215.485 53.4056 215.337 53.3496C215.193 53.2936 215.069 53.2056 214.965 53.0856C214.865 52.9616 214.815 52.7956 214.815 52.5876C214.815 52.3116 214.917 52.0896 215.121 51.9216C215.325 51.7496 215.603 51.6636 215.955 51.6636Z" fill="#3F3232"/>
<path fill-rule="evenodd" clip-rule="evenodd" d="M207.542 28.0001C208.068 28.0001 208.593 28.0743 209.092 28.2418C212.168 29.2418 213.276 32.6168 212.35 35.5668C211.825 37.0743 210.967 38.4501 209.843 39.5743C208.233 41.1326 206.468 42.516 204.567 43.7076L204.358 43.8335L204.142 43.6993C202.234 42.516 200.458 41.1326 198.834 39.566C197.718 38.4418 196.858 37.0743 196.325 35.5668C195.383 32.6168 196.492 29.2418 199.601 28.2243C199.843 28.141 200.092 28.0826 200.342 28.0501H200.442C200.676 28.016 200.908 28.0001 201.142 28.0001H201.233C201.758 28.016 202.267 28.1076 202.759 28.2751H202.808C202.842 28.291 202.867 28.3085 202.883 28.3243C203.068 28.3835 203.242 28.4501 203.408 28.5418L203.725 28.6835C203.802 28.7243 203.887 28.7866 203.962 28.8405C204.009 28.8747 204.051 28.9054 204.083 28.9251C204.097 28.9332 204.111 28.9412 204.125 28.9494C204.196 28.9911 204.271 29.0345 204.333 29.0826C205.259 28.3751 206.383 27.9918 207.542 28.0001ZM209.758 34.0002C210.1 33.991 210.391 33.7169 210.416 33.366V33.2669C210.441 32.0994 209.734 31.0419 208.658 30.6335C208.316 30.516 207.941 30.7002 207.816 31.0502C207.7 31.4002 207.883 31.7835 208.233 31.9077C208.767 32.1077 209.125 32.6335 209.125 33.216V33.2419C209.109 33.4327 209.166 33.6169 209.283 33.7585C209.4 33.9002 209.575 33.9827 209.758 34.0002Z" fill="#F94A3D"/>
<path d="M246.397 50.77V53.308C246.397 53.724 246.489 54.032 246.673 54.232C246.857 54.428 247.111 54.526 247.435 54.526C247.755 54.526 248.005 54.426 248.185 54.226C248.365 54.026 248.455 53.72 248.455 53.308V50.77H249.001V53.308C249.001 53.884 248.857 54.318 248.569 54.61C248.285 54.898 247.903 55.042 247.423 55.042C246.947 55.042 246.565 54.898 246.277 54.61C245.993 54.318 245.851 53.884 245.851 53.308V50.77H246.397ZM250.88 51.664C251.252 51.664 251.55 51.762 251.774 51.958C252.002 52.15 252.14 52.41 252.188 52.738H251.666C251.642 52.542 251.56 52.382 251.42 52.258C251.284 52.13 251.1 52.066 250.868 52.066C250.672 52.066 250.518 52.114 250.406 52.21C250.298 52.302 250.244 52.428 250.244 52.588C250.244 52.708 250.28 52.806 250.352 52.882C250.428 52.954 250.52 53.01 250.628 53.05C250.74 53.086 250.892 53.126 251.084 53.17C251.328 53.226 251.524 53.284 251.672 53.344C251.824 53.4 251.952 53.492 252.056 53.62C252.164 53.748 252.218 53.92 252.218 54.136C252.218 54.404 252.116 54.622 251.912 54.79C251.712 54.958 251.444 55.042 251.108 55.042C250.716 55.042 250.396 54.948 250.148 54.76C249.9 54.572 249.754 54.31 249.71 53.974H250.238C250.258 54.174 250.344 54.336 250.496 54.46C250.652 54.584 250.856 54.646 251.108 54.646C251.296 54.646 251.442 54.598 251.546 54.502C251.654 54.406 251.708 54.28 251.708 54.124C251.708 53.996 251.67 53.894 251.594 53.818C251.518 53.742 251.424 53.684 251.312 53.644C251.2 53.604 251.046 53.562 250.85 53.518C250.606 53.462 250.41 53.406 250.262 53.35C250.118 53.294 249.994 53.206 249.89 53.086C249.79 52.962 249.74 52.796 249.74 52.588C249.74 52.312 249.842 52.09 250.046 51.922C250.25 51.75 250.528 51.664 250.88 51.664ZM255.978 53.17C255.978 53.286 255.97 53.386 255.954 53.47H253.32C253.332 53.846 253.438 54.128 253.638 54.316C253.842 54.504 254.09 54.598 254.382 54.598C254.646 54.598 254.866 54.532 255.042 54.4C255.222 54.264 255.332 54.084 255.372 53.86H255.954C255.914 54.088 255.824 54.292 255.684 54.472C255.548 54.652 255.37 54.792 255.15 54.892C254.93 54.992 254.682 55.042 254.406 55.042C254.09 55.042 253.81 54.974 253.566 54.838C253.322 54.702 253.13 54.508 252.99 54.256C252.854 54 252.786 53.7 252.786 53.356C252.786 53.012 252.854 52.712 252.99 52.456C253.13 52.2 253.322 52.004 253.566 51.868C253.81 51.732 254.09 51.664 254.406 51.664C254.726 51.664 255.004 51.732 255.24 51.868C255.48 52.004 255.662 52.186 255.786 52.414C255.914 52.642 255.978 52.894 255.978 53.17ZM255.426 53.206C255.438 52.962 255.398 52.758 255.306 52.594C255.214 52.43 255.088 52.308 254.928 52.228C254.768 52.148 254.594 52.108 254.406 52.108C254.106 52.108 253.854 52.202 253.65 52.39C253.446 52.574 253.336 52.846 253.32 53.206H255.426ZM257.238 52.372C257.346 52.144 257.504 51.968 257.712 51.844C257.92 51.716 258.168 51.652 258.456 51.652V52.246H258.288C257.98 52.246 257.728 52.326 257.532 52.486C257.336 52.642 257.238 52.902 257.238 53.266V55H256.692V51.706H257.238V52.372Z" fill="#3F3232"/>
<path fill-rule="evenodd" clip-rule="evenodd" d="M256.077 32.4092C256.077 34.8567 254.115 36.8193 251.666 36.8193C249.217 36.8193 247.254 34.8567 247.254 32.4092C247.254 29.9617 249.217 28 251.666 28C254.115 28 256.077 29.9617 256.077 32.4092ZM251.667 44.6669C248.052 44.6669 245 44.0794 245 41.8127C245 39.5452 248.071 38.9785 251.667 38.9785C255.282 38.9785 258.333 39.566 258.333 41.8327C258.333 44.1002 255.262 44.6669 251.667 44.6669Z" fill="#F94A3D"/>
<path d="M69.0756 55.3326H68.5296L66.3336 51.9906V55.3326H65.7876V51.1026H66.3336L68.5296 54.4506V51.1026H69.0756V55.3326ZM71.4476 51.9966C71.7636 51.9966 72.0456 52.0646 72.2936 52.2006C72.5456 52.3366 72.7416 52.5326 72.8816 52.7886C73.0256 53.0446 73.0976 53.3446 73.0976 53.6886C73.0976 54.0326 73.0256 54.3326 72.8816 54.5886C72.7416 54.8406 72.5456 55.0346 72.2936 55.1706C72.0456 55.3066 71.7636 55.3746 71.4476 55.3746C71.1316 55.3746 70.8476 55.3066 70.5956 55.1706C70.3476 55.0346 70.1516 54.8406 70.0076 54.5886C69.8636 54.3326 69.7916 54.0326 69.7916 53.6886C69.7916 53.3446 69.8636 53.0446 70.0076 52.7886C70.1516 52.5326 70.3476 52.3366 70.5956 52.2006C70.8476 52.0646 71.1316 51.9966 71.4476 51.9966ZM71.4476 52.4766C71.2516 52.4766 71.0696 52.5206 70.9016 52.6086C70.7376 52.6966 70.6036 52.8326 70.4996 53.0166C70.3996 53.1966 70.3496 53.4206 70.3496 53.6886C70.3496 53.9526 70.3996 54.1766 70.4996 54.3606C70.6036 54.5406 70.7376 54.6746 70.9016 54.7626C71.0696 54.8506 71.2516 54.8946 71.4476 54.8946C71.6436 54.8946 71.8236 54.8506 71.9876 54.7626C72.1556 54.6746 72.2896 54.5406 72.3896 54.3606C72.4936 54.1766 72.5456 53.9526 72.5456 53.6886C72.5456 53.4206 72.4936 53.1966 72.3896 53.0166C72.2896 52.8326 72.1556 52.6966 71.9876 52.6086C71.8236 52.5206 71.6436 52.4766 71.4476 52.4766ZM75.3811 54.8526V55.3326H74.9731C74.6371 55.3326 74.3851 55.2526 74.2171 55.0926C74.0531 54.9326 73.9711 54.6646 73.9711 54.2886V52.5126H73.4791V52.0386H73.9711V51.2166H74.5231V52.0386H75.3751V52.5126H74.5231V54.3006C74.5231 54.5126 74.5611 54.6586 74.6371 54.7386C74.7171 54.8146 74.8531 54.8526 75.0451 54.8526H75.3811ZM75.9514 51.0726C75.9514 50.9726 75.9854 50.8926 76.0534 50.8326C76.1214 50.7686 76.2114 50.7366 76.3234 50.7366C76.4354 50.7366 76.5254 50.7686 76.5934 50.8326C76.6614 50.8926 76.6954 50.9726 76.6954 51.0726C76.6954 51.1726 76.6614 51.2546 76.5934 51.3186C76.5254 51.3786 76.4354 51.4086 76.3234 51.4086C76.2114 51.4086 76.1214 51.3786 76.0534 51.3186C75.9854 51.2546 75.9514 51.1726 75.9514 51.0726ZM76.5934 52.0386V55.3326H76.0474V52.0386H76.5934ZM78.9292 51.2586C78.6372 51.2546 78.4332 51.3046 78.3172 51.4086C78.2052 51.5126 78.1492 51.6926 78.1492 51.9486V52.0386H78.9292V52.5186H78.1492V55.3326H77.6032V52.5186H77.1292V52.0386H77.6032V51.9066C77.6032 51.1186 78.0452 50.7426 78.9292 50.7786V51.2586ZM79.426 51.0726C79.426 50.9726 79.46 50.8926 79.528 50.8326C79.596 50.7686 79.686 50.7366 79.798 50.7366C79.91 50.7366 80 50.7686 80.068 50.8326C80.136 50.8926 80.17 50.9726 80.17 51.0726C80.17 51.1726 80.136 51.2546 80.068 51.3186C80 51.3786 79.91 51.4086 79.798 51.4086C79.686 51.4086 79.596 51.3786 79.528 51.3186C79.46 51.2546 79.426 51.1726 79.426 51.0726ZM80.068 52.0386V55.3326H79.522V52.0386H80.068ZM82.4038 51.9966C82.8238 51.9966 83.1718 52.1086 83.4478 52.3326C83.7238 52.5566 83.8938 52.8566 83.9578 53.2326H83.3818C83.3418 52.9966 83.2318 52.8126 83.0518 52.6806C82.8758 52.5446 82.6558 52.4766 82.3918 52.4766C82.1998 52.4766 82.0238 52.5206 81.8638 52.6086C81.7078 52.6966 81.5818 52.8326 81.4858 53.0166C81.3898 53.1966 81.3418 53.4206 81.3418 53.6886C81.3418 53.9566 81.3898 54.1826 81.4858 54.3666C81.5818 54.5466 81.7078 54.6806 81.8638 54.7686C82.0238 54.8566 82.1998 54.9006 82.3918 54.9006C82.6558 54.9006 82.8758 54.8326 83.0518 54.6966C83.2318 54.5606 83.3418 54.3746 83.3818 54.1386H83.9578C83.8938 54.5186 83.7238 54.8206 83.4478 55.0446C83.1718 55.2646 82.8238 55.3746 82.4038 55.3746C82.0878 55.3746 81.8078 55.3066 81.5638 55.1706C81.3198 55.0346 81.1278 54.8406 80.9878 54.5886C80.8518 54.3326 80.7838 54.0326 80.7838 53.6886C80.7838 53.3446 80.8518 53.0446 80.9878 52.7886C81.1278 52.5326 81.3198 52.3366 81.5638 52.2006C81.8078 52.0646 82.0878 51.9966 82.4038 51.9966ZM86.0224 51.9966C86.3424 51.9966 86.6124 52.0766 86.8324 52.2366C87.0564 52.3966 87.2124 52.6106 87.3004 52.8786V52.0386H87.8464V55.3326H87.3004V54.4926C87.2124 54.7606 87.0564 54.9746 86.8324 55.1346C86.6124 55.2946 86.3424 55.3746 86.0224 55.3746C85.7304 55.3746 85.4704 55.3066 85.2424 55.1706C85.0144 55.0346 84.8344 54.8406 84.7024 54.5886C84.5744 54.3326 84.5104 54.0326 84.5104 53.6886C84.5104 53.3446 84.5744 53.0446 84.7024 52.7886C84.8344 52.5326 85.0144 52.3366 85.2424 52.2006C85.4704 52.0646 85.7304 51.9966 86.0224 51.9966ZM86.1784 52.4826C85.8424 52.4826 85.5724 52.5906 85.3684 52.8066C85.1684 53.0186 85.0684 53.3126 85.0684 53.6886C85.0684 54.0646 85.1684 54.3606 85.3684 54.5766C85.5724 54.7886 85.8424 54.8946 86.1784 54.8946C86.3944 54.8946 86.5864 54.8446 86.7544 54.7446C86.9264 54.6446 87.0604 54.5046 87.1564 54.3246C87.2524 54.1406 87.3004 53.9286 87.3004 53.6886C87.3004 53.4486 87.2524 53.2366 87.1564 53.0526C87.0604 52.8686 86.9264 52.7286 86.7544 52.6326C86.5864 52.5326 86.3944 52.4826 86.1784 52.4826ZM90.2873 54.8526V55.3326H89.8793C89.5433 55.3326 89.2913 55.2526 89.1233 55.0926C88.9593 54.9326 88.8773 54.6646 88.8773 54.2886V52.5126H88.3853V52.0386H88.8773V51.2166H89.4293V52.0386H90.2813V52.5126H89.4293V54.3006C89.4293 54.5126 89.4673 54.6586 89.5433 54.7386C89.6233 54.8146 89.7593 54.8526 89.9513 54.8526H90.2873ZM90.8576 51.0726C90.8576 50.9726 90.8916 50.8926 90.9596 50.8326C91.0276 50.7686 91.1176 50.7366 91.2296 50.7366C91.3416 50.7366 91.4316 50.7686 91.4996 50.8326C91.5676 50.8926 91.6016 50.9726 91.6016 51.0726C91.6016 51.1726 91.5676 51.2546 91.4996 51.3186C91.4316 51.3786 91.3416 51.4086 91.2296 51.4086C91.1176 51.4086 91.0276 51.3786 90.9596 51.3186C90.8916 51.2546 90.8576 51.1726 90.8576 51.0726ZM91.4996 52.0386V55.3326H90.9536V52.0386H91.4996ZM93.8715 51.9966C94.1875 51.9966 94.4695 52.0646 94.7175 52.2006C94.9695 52.3366 95.1655 52.5326 95.3055 52.7886C95.4495 53.0446 95.5215 53.3446 95.5215 53.6886C95.5215 54.0326 95.4495 54.3326 95.3055 54.5886C95.1655 54.8406 94.9695 55.0346 94.7175 55.1706C94.4695 55.3066 94.1875 55.3746 93.8715 55.3746C93.5555 55.3746 93.2715 55.3066 93.0195 55.1706C92.7715 55.0346 92.5755 54.8406 92.4315 54.5886C92.2875 54.3326 92.2155 54.0326 92.2155 53.6886C92.2155 53.3446 92.2875 53.0446 92.4315 52.7886C92.5755 52.5326 92.7715 52.3366 93.0195 52.2006C93.2715 52.0646 93.5555 51.9966 93.8715 51.9966ZM93.8715 52.4766C93.6755 52.4766 93.4935 52.5206 93.3255 52.6086C93.1615 52.6966 93.0275 52.8326 92.9235 53.0166C92.8235 53.1966 92.7735 53.4206 92.7735 53.6886C92.7735 53.9526 92.8235 54.1766 92.9235 54.3606C93.0275 54.5406 93.1615 54.6746 93.3255 54.7626C93.4935 54.8506 93.6755 54.8946 93.8715 54.8946C94.0675 54.8946 94.2475 54.8506 94.4115 54.7626C94.5795 54.6746 94.7135 54.5406 94.8135 54.3606C94.9175 54.1766 94.9695 53.9526 94.9695 53.6886C94.9695 53.4206 94.9175 53.1966 94.8135 53.0166C94.7135 52.8326 94.5795 52.6966 94.4115 52.6086C94.2475 52.5206 94.0675 52.4766 93.8715 52.4766ZM97.9669 51.9846C98.3509 51.9846 98.6609 52.1086 98.8969 52.3566C99.1329 52.6006 99.2509 52.9546 99.2509 53.4186V55.3326H98.7049V53.4666C98.7049 53.1386 98.6209 52.8866 98.4529 52.7106C98.2849 52.5346 98.0569 52.4466 97.7689 52.4466C97.4689 52.4466 97.2289 52.5446 97.0489 52.7406C96.8689 52.9326 96.7789 53.2146 96.7789 53.5866V55.3326H96.2329V52.0386H96.7789V52.8186C96.8629 52.5506 97.0109 52.3446 97.2229 52.2006C97.4389 52.0566 97.6869 51.9846 97.9669 51.9846Z" fill="#3F3232"/>
<path fill-rule="evenodd" clip-rule="evenodd" d="M87.6726 33.6636C87.6726 34.7102 87.9492 35.3271 88.5579 36.038C89.0192 36.5617 89.1667 37.234 89.1667 37.9634C89.1667 38.6919 88.9273 39.3834 88.4478 39.9449C87.82 40.6181 86.9346 41.0478 86.031 41.1225C84.7216 41.2341 83.4114 41.3281 82.0837 41.3281C80.7553 41.3281 79.4459 41.2719 78.1365 41.1225C77.232 41.0478 76.3467 40.6181 75.7197 39.9449C75.2402 39.3834 75 38.6919 75 37.9634C75 37.234 75.1483 36.5617 75.6087 36.038C76.2365 35.3271 76.4949 34.7102 76.4949 33.6636V33.3086C76.4949 31.9069 76.8444 30.9904 77.5642 30.0932C78.6342 28.7847 80.3495 28 82.0465 28H82.121C83.8545 28 85.6252 28.8225 86.677 30.1872C87.3595 31.066 87.6726 31.9439 87.6726 33.3086V33.6636ZM79.6445 43.0507C79.6445 42.6311 80.0297 42.4389 80.3858 42.3566C80.8024 42.2685 83.3409 42.2685 83.7575 42.3566C84.1136 42.4389 84.4987 42.6311 84.4987 43.0507C84.478 43.4502 84.2436 43.8044 83.9198 44.0294C83.4999 44.3567 83.0071 44.564 82.4919 44.6387C82.207 44.6756 81.9271 44.6765 81.6521 44.6387C81.1362 44.564 80.6434 44.3567 80.2243 44.0285C79.8996 43.8044 79.6652 43.4502 79.6445 43.0507Z" fill="#F94A3D"/>
<defs>
<linearGradient id="paint0_linear_3119_5100" x1="140" y1="14" x2="231.655" y2="111.215" gradientUnits="userSpaceOnUse">
<stop stop-color="#FF5331"/>
<stop offset="1" stop-color="#E35336"/>
</linearGradient>
</defs>
</svg>
