<svg width="133" height="32" viewBox="0 0 133 32" fill="none" xmlns="http://www.w3.org/2000/svg">
<path d="M66.99 17.9871C64.315 17.9871 62.1348 20.0217 62.1348 22.8241C62.1348 25.6093 64.315 27.661 66.99 27.661C69.6661 27.661 71.8463 25.6093 71.8463 22.8241C71.8451 20.0217 69.6649 17.9871 66.99 17.9871ZM66.99 25.7572C65.524 25.7572 64.2604 24.5482 64.2604 22.8252C64.2604 21.084 65.5251 19.8932 66.99 19.8932C68.456 19.8932 69.7195 21.084 69.7195 22.8252C69.7195 24.5471 68.456 25.7572 66.99 25.7572ZM56.3971 17.9871C53.7222 17.9871 51.5419 20.0217 51.5419 22.8241C51.5419 25.6093 53.7222 27.661 56.3971 27.661C59.0732 27.661 61.2534 25.6093 61.2534 22.8241C61.2534 20.0217 59.0732 17.9871 56.3971 17.9871ZM56.3971 25.7572C54.9311 25.7572 53.6676 24.5482 53.6676 22.8252C53.6676 21.084 54.9322 19.8932 56.3971 19.8932C57.8631 19.8932 59.1266 21.084 59.1266 22.8252C59.1278 24.5471 57.8631 25.7572 56.3971 25.7572ZM43.798 19.4724V21.5241H48.7089C48.5622 22.6785 48.1778 23.5212 47.5909 24.1069C46.8767 24.8212 45.7587 25.6093 43.798 25.6093C40.7751 25.6093 38.4117 23.1721 38.4117 20.1491C38.4117 17.1262 40.7751 14.6889 43.798 14.6889C45.4289 14.6889 46.6197 15.3303 47.4988 16.1549L48.9466 14.7071C47.7183 13.5345 46.0885 12.6372 43.798 12.6372C39.6571 12.6372 36.1758 16.0082 36.1758 20.1491C36.1758 24.2901 39.6571 27.661 43.798 27.661C46.0328 27.661 47.7194 26.9275 49.0376 25.5536C50.3933 24.1979 50.8152 22.2918 50.8152 20.753C50.8152 20.2776 50.7788 19.8375 50.7049 19.4713H43.798V19.4724ZM95.3271 21.0658C94.9245 19.9853 93.6962 17.9871 91.1862 17.9871C88.6943 17.9871 86.6233 19.9478 86.6233 22.8241C86.6233 25.5354 88.6761 27.661 91.4239 27.661C93.6405 27.661 94.9234 26.3054 95.4556 25.5172L93.8065 24.4174C93.2572 25.2238 92.5055 25.7549 91.4239 25.7549C90.3434 25.7549 89.5735 25.2602 89.0788 24.2889L95.5466 21.614L95.3271 21.0658ZM88.7307 22.6785C88.6761 20.8088 90.1785 19.8568 91.2601 19.8568C92.1028 19.8568 92.8171 20.2788 93.0559 20.8827L88.7307 22.6785ZM83.473 27.3687H85.5975V13.1513H83.473V27.3687ZM79.9905 19.0687H79.9177C79.4412 18.5 78.5245 17.9871 77.3713 17.9871C74.9523 17.9871 72.7357 20.1127 72.7357 22.8434C72.7357 25.5547 74.9523 27.6622 77.3713 27.6622C78.5257 27.6622 79.4412 27.1492 79.9177 26.5635H79.9905V27.2596C79.9905 29.11 79.0011 30.0994 77.4077 30.0994C76.1066 30.0994 75.3003 29.1657 74.9705 28.3775L73.1201 29.1475C73.6512 30.4292 75.0614 32.0055 77.4077 32.0055C79.8995 32.0055 82.007 30.5396 82.007 26.9661V18.2817H79.9917V19.0687H79.9905ZM77.5544 25.7572C76.0884 25.7572 74.8613 24.5289 74.8613 22.8434C74.8613 21.1386 76.0884 19.8932 77.5544 19.8932C79.0011 19.8932 80.1372 21.1386 80.1372 22.8434C80.1372 24.5289 79.0011 25.7572 77.5544 25.7572ZM105.283 13.1513H100.198V27.3687H102.319V21.9825H105.282C107.634 21.9825 109.947 20.2799 109.947 17.5674C109.947 14.855 107.635 13.1513 105.283 13.1513ZM105.338 20.0035H102.319V15.1302H105.338C106.924 15.1302 107.825 16.4438 107.825 17.5674C107.825 18.6683 106.924 20.0035 105.338 20.0035ZM118.453 17.9621C116.917 17.9621 115.326 18.6388 114.667 20.1389L116.55 20.9248C116.953 20.1389 117.704 19.8819 118.49 19.8819C119.587 19.8819 120.703 20.5404 120.721 21.7106V21.8574C120.336 21.6379 119.513 21.3092 118.508 21.3092C116.478 21.3092 114.41 22.4249 114.41 24.5096C114.41 26.4123 116.075 27.6371 117.94 27.6371C119.366 27.6371 120.153 26.9968 120.647 26.2462H120.72V27.3437H122.769V21.8926C122.77 19.3701 120.885 17.9621 118.453 17.9621ZM118.196 25.7538C117.502 25.7538 116.532 25.4058 116.532 24.5459C116.532 23.4484 117.74 23.0276 118.783 23.0276C119.714 23.0276 120.155 23.2289 120.721 23.503C120.556 24.8212 119.422 25.7538 118.196 25.7538ZM130.232 18.2726L127.8 24.4368H127.727L125.202 18.2726H122.916L126.702 26.8877L124.543 31.6803H126.757L132.592 18.2726H130.232ZM111.119 27.3687H113.24V13.1513H111.119V27.3687Z" fill="white"/>
<path fill-rule="evenodd" clip-rule="evenodd" d="M70.7131 0.98584C69.697 0.98584 68.8444 1.33892 68.1605 2.04263C67.4757 2.74591 67.1346 3.60812 67.1346 4.62351C67.1346 5.6389 67.4757 6.5011 68.1605 7.20439C68.8445 7.90814 69.6971 8.26004 70.7131 8.26004C71.7292 8.26004 72.5818 7.90807 73.267 7.20434C73.9505 6.50112 74.2928 5.63895 74.2928 4.62351C74.2928 3.61353 73.9492 2.7537 73.2624 2.04722C72.5752 1.34022 71.7238 0.98584 70.7131 0.98584ZM68.1741 4.62351C68.1741 3.84662 68.4216 3.2127 68.9107 2.71584C69.4018 2.21914 70.0008 1.97073 70.7131 1.97073C71.4256 1.97073 72.0257 2.21814 72.5155 2.71578C73.0058 3.21264 73.2533 3.84657 73.2533 4.62351C73.2533 5.40045 73.0058 6.03437 72.5155 6.53123C72.0256 7.02784 71.4255 7.27629 70.7131 7.27629C70.0008 7.27629 69.4019 7.02898 68.9108 6.53129C68.4216 6.03441 68.1741 5.40045 68.1741 4.62351Z" fill="white"/>
<path d="M40.0742 0.988062C39.0707 0.988062 38.2141 1.3365 37.5122 2.03371C36.8087 2.73027 36.457 3.59517 36.457 4.62459C36.457 5.65292 36.8087 6.5178 37.5122 7.21547C38.2141 7.91154 39.0707 8.25998 40.0742 8.25998C41.1194 8.25998 41.976 7.91707 42.6326 7.22825C43.2135 6.64586 43.5004 5.86775 43.5004 4.89982C43.5004 4.73055 43.4852 4.55428 43.4502 4.37107L43.439 4.31241H40.0009V5.27683H42.4716C42.4119 5.81659 42.2286 6.23388 41.9281 6.53547C41.4342 7.02934 40.8172 7.27623 40.0731 7.27623C39.3733 7.27623 38.7702 7.03119 38.2591 6.53898C37.7506 6.0492 37.4954 5.41257 37.4954 4.62345C37.4954 3.83434 37.7506 3.1977 38.2591 2.70792C38.7702 2.21572 39.3733 1.97068 40.0731 1.97068C40.8498 1.97068 41.4504 2.23298 41.8863 2.75454L41.937 2.81518L42.6388 2.11197L42.5964 2.06133C42.3218 1.73395 41.9559 1.47409 41.5027 1.27936C41.0501 1.08554 40.5729 0.988062 40.0742 0.988062Z" fill="white"/>
<path d="M48.7434 1.13939H44.615V8.10765H48.7434V7.1239H45.6363V5.10516H48.4386V4.14074H45.6363V2.122H48.7434V1.13939Z" fill="white"/>
<path d="M54.3468 1.13939H49.5133V2.122H51.4194V8.10765H52.4407V2.122H54.3468V1.13939Z" fill="white"/>
<path d="M58.6162 1.13939H57.5949V8.10765H58.6162V1.13939Z" fill="white"/>
<path d="M64.411 1.13939H59.5775V2.122H61.4836V8.10765H62.5049V2.122H64.411V1.13939Z" fill="white"/>
<path d="M76.558 1.13939H75.379V8.10765H76.398L76.398 3.78418L76.3662 2.67085L79.7556 8.10765H80.7834V1.13939H79.7622V5.20468L79.7622 5.20674L79.7939 6.3184L76.558 1.13939Z" fill="white"/>
<g filter="url(#filter0_ii_0_1)">
<path d="M1.36642 1.8213C1.03546 2.1716 0.839843 2.71523 0.839843 3.41922V28.5719C0.839843 29.277 1.03546 29.8195 1.36642 30.1698L1.45058 30.2517L15.5407 16.1616V15.9956V15.8295L1.45058 1.73828L1.36642 1.8213Z" fill="url(#paint0_linear_0_1)"/>
<path d="M20.235 20.8602L15.5391 16.162V15.9959V15.8299L20.2361 11.1328L20.3419 11.1931L25.9068 14.3548C27.4956 15.2578 27.4956 16.7352 25.9068 17.6393L20.3419 20.8011L20.235 20.8602Z" fill="url(#paint1_linear_0_1)"/>
<g filter="url(#filter1_i_0_1)">
<path d="M20.3443 20.8006L15.5403 15.9966L1.36719 30.1708C1.89035 30.7258 2.75584 30.7941 3.73051 30.2414L20.3443 20.8006Z" fill="url(#paint2_linear_0_1)"/>
</g>
<path d="M20.3443 11.192L3.73051 1.75234C2.75584 1.19847 1.89035 1.26785 1.36719 1.82285L15.5414 15.9971L20.3443 11.192Z" fill="url(#paint3_linear_0_1)"/>
</g>
<defs>
<filter id="filter0_ii_0_1" x="0.839844" y="1.37012" width="26.2585" height="29.253" filterUnits="userSpaceOnUse" color-interpolation-filters="sRGB">
<feFlood flood-opacity="0" result="BackgroundImageFix"/>
<feBlend mode="normal" in="SourceGraphic" in2="BackgroundImageFix" result="shape"/>
<feColorMatrix in="SourceAlpha" type="matrix" values="0 0 0 0 0 0 0 0 0 0 0 0 0 0 0 0 0 0 127 0" result="hardAlpha"/>
<feOffset dy="-0.15"/>
<feComposite in2="hardAlpha" operator="arithmetic" k2="-1" k3="1"/>
<feColorMatrix type="matrix" values="0 0 0 0 0 0 0 0 0 0 0 0 0 0 0 0 0 0 0.12 0"/>
<feBlend mode="normal" in2="shape" result="effect1_innerShadow_0_1"/>
<feColorMatrix in="SourceAlpha" type="matrix" values="0 0 0 0 0 0 0 0 0 0 0 0 0 0 0 0 0 0 127 0" result="hardAlpha"/>
<feOffset dy="0.15"/>
<feComposite in2="hardAlpha" operator="arithmetic" k2="-1" k3="1"/>
<feColorMatrix type="matrix" values="0 0 0 0 1 0 0 0 0 1 0 0 0 0 1 0 0 0 0.25 0"/>
<feBlend mode="normal" in2="effect1_innerShadow_0_1" result="effect2_innerShadow_0_1"/>
</filter>
<filter id="filter1_i_0_1" x="1.36719" y="15.9966" width="18.9771" height="14.6265" filterUnits="userSpaceOnUse" color-interpolation-filters="sRGB">
<feFlood flood-opacity="0" result="BackgroundImageFix"/>
<feBlend mode="normal" in="SourceGraphic" in2="BackgroundImageFix" result="shape"/>
<feColorMatrix in="SourceAlpha" type="matrix" values="0 0 0 0 0 0 0 0 0 0 0 0 0 0 0 0 0 0 127 0" result="hardAlpha"/>
<feOffset dy="-0.15"/>
<feComposite in2="hardAlpha" operator="arithmetic" k2="-1" k3="1"/>
<feColorMatrix type="matrix" values="0 0 0 0 0 0 0 0 0 0 0 0 0 0 0 0 0 0 0.08 0"/>
<feBlend mode="normal" in2="shape" result="effect1_innerShadow_0_1"/>
</filter>
<linearGradient id="paint0_linear_0_1" x1="14.2917" y1="3.15309" x2="-4.7946" y2="22.2394" gradientUnits="userSpaceOnUse">
<stop stop-color="#00A0FF"/>
<stop offset="0.0066" stop-color="#00A1FF"/>
<stop offset="0.2601" stop-color="#00BEFF"/>
<stop offset="0.5122" stop-color="#00D2FF"/>
<stop offset="0.7604" stop-color="#00DFFF"/>
<stop offset="1" stop-color="#00E3FF"/>
</linearGradient>
<linearGradient id="paint1_linear_0_1" x1="27.9749" y1="15.9959" x2="0.456782" y2="15.9959" gradientUnits="userSpaceOnUse">
<stop stop-color="#FFE000"/>
<stop offset="0.4087" stop-color="#FFBD00"/>
<stop offset="0.7754" stop-color="#FFA500"/>
<stop offset="1" stop-color="#FF9C00"/>
</linearGradient>
<linearGradient id="paint2_linear_0_1" x1="17.7354" y1="18.6054" x2="-8.14797" y2="44.4889" gradientUnits="userSpaceOnUse">
<stop stop-color="#FF3A44"/>
<stop offset="1" stop-color="#C31162"/>
</linearGradient>
<linearGradient id="paint3_linear_0_1" x1="-2.20236" y1="-6.55023" x2="9.35529" y2="5.00743" gradientUnits="userSpaceOnUse">
<stop stop-color="#32A071"/>
<stop offset="0.0685" stop-color="#2DA771"/>
<stop offset="0.4762" stop-color="#15CF74"/>
<stop offset="0.8009" stop-color="#06E775"/>
<stop offset="1" stop-color="#00F076"/>
</linearGradient>
</defs>
</svg>
